<svg width="40" height="32" viewBox="0 0 40 32" fill="none" xmlns="http://www.w3.org/2000/svg">
<g clip-path="url(#clip0_2008_560)">
<path d="M31.184 4.01593C31.6 4.01593 31.984 4.01593 32.4 4.01593C32.4 10.0319 32.4 16.0319 32.4 22.0639C32 22.0639 31.6 22.0639 31.184 22.0639C31.184 16.0479 31.184 10.0479 31.184 4.01593Z" fill="black"/>
<path d="M21.088 4.03253C21.504 4.03253 21.888 4.03253 22.288 4.03253C22.288 10.0485 22.288 16.0485 22.288 22.0645C21.888 22.0645 21.504 22.0645 21.12 22.0645C21.04 21.8245 21.008 4.62453 21.088 4.03253Z" fill="black"/>
<path d="M2.52806 4.01593C2.80006 4.01593 3.04006 4.01593 3.31206 4.01593C3.31206 11.0079 3.31206 17.9999 3.31206 25.0079C3.16806 25.0079 3.04006 25.0239 2.91206 25.0239C2.80006 25.0239 2.67206 25.0239 2.52806 25.0239C2.52806 18.0159 2.52806 11.0399 2.52806 4.01593Z" fill="black"/>
<path d="M18.08 22.0645C17.808 22.0645 17.568 22.0645 17.296 22.0645C17.296 16.0645 17.296 10.0645 17.296 4.03253C17.552 4.03253 17.808 4.03253 18.08 4.03253C18.08 10.0325 18.08 16.0325 18.08 22.0645Z" fill="black"/>
<path d="M14.3361 4.03253C14.6081 4.03253 14.8641 4.03253 15.1361 4.03253C15.1361 10.0485 15.1361 16.0485 15.1361 22.0645C14.8641 22.0645 14.6081 22.0645 14.3361 22.0645C14.3361 16.0485 14.3361 10.0485 14.3361 4.03253Z" fill="black"/>
<path d="M24.032 4.01593C24.32 4.01593 24.56 4.01593 24.832 4.01593C24.832 10.0319 24.832 16.0159 24.832 22.0479C24.56 22.0479 24.304 22.0479 24.032 22.0479C24.032 16.0479 24.032 10.0479 24.032 4.01593Z" fill="black"/>
<path d="M5.42405 22.0645C5.15205 22.0645 4.91205 22.0645 4.62405 22.0645C4.62405 16.0485 4.62405 10.0485 4.62405 4.03253C4.89605 4.03253 5.15205 4.03253 5.42405 4.03253C5.42405 10.0485 5.42405 16.0485 5.42405 22.0645Z" fill="black"/>
<path d="M27.776 22.0645C27.504 22.0645 27.264 22.0645 26.976 22.0645C26.976 16.0485 26.976 10.0485 26.976 4.03253C27.248 4.03253 27.504 4.03253 27.776 4.03253C27.776 10.0485 27.776 16.0485 27.776 22.0645Z" fill="black"/>
<path d="M8.80003 22.0639C8.52803 22.0639 8.28803 22.0639 8.01603 22.0639C8.01603 16.0479 8.01603 10.0479 8.01603 4.01593C8.27203 4.01593 8.52803 4.01593 8.80003 4.01593C8.80003 10.0319 8.80003 16.0319 8.80003 22.0639Z" fill="black"/>
<path d="M34.576 4.03253C34.832 4.03253 35.088 4.03253 35.36 4.03253C35.36 10.0485 35.36 16.0485 35.36 22.0645C35.088 22.0645 34.848 22.0645 34.576 22.0645C34.576 16.0485 34.576 10.0485 34.576 4.03253Z" fill="black"/>
<path d="M11.392 4.01593C11.6639 4.01593 11.9039 4.01593 12.1759 4.01593C12.1759 10.0319 12.1759 16.0159 12.1759 22.0479C12.0479 22.0639 11.9199 22.0639 11.7919 22.0639C11.6799 22.0639 11.552 22.0639 11.44 22.0639C11.344 21.8079 11.296 4.92793 11.392 4.01593Z" fill="black"/>
<path d="M32.8799 4.03253C33.1359 4.03253 33.3759 4.03253 33.6639 4.03253C33.6639 10.0485 33.6639 16.0485 33.6639 22.0645C33.4079 22.0645 33.1519 22.0645 32.8799 22.0645C32.8799 16.0485 32.8799 10.0485 32.8799 4.03253Z" fill="black"/>
<path d="M28.2559 4.03253C28.5279 4.03253 28.7839 4.03253 29.0559 4.03253C29.0559 10.0485 29.0559 16.0325 29.0559 22.0485C28.7839 22.0485 28.5439 22.0485 28.2559 22.0485C28.2559 16.0485 28.2559 10.0485 28.2559 4.03253Z" fill="black"/>
<path d="M25.712 4.01593C25.984 4.01593 26.224 4.01593 26.496 4.01593C26.496 10.0319 26.496 16.0319 26.496 22.0639C26.224 22.0639 25.984 22.0639 25.712 22.0639C25.712 16.0479 25.712 10.0479 25.712 4.01593Z" fill="black"/>
<path d="M38.7841 4.03253C38.8961 4.03253 39.0081 4.03253 39.1521 4.03253C39.1521 11.0245 39.1521 18.0005 39.1521 25.0085C39.0401 25.0245 38.9281 25.0245 38.7841 25.0405C38.7841 18.0165 38.7841 11.0405 38.7841 4.03253Z" fill="black"/>
<path d="M39.632 4.03253C39.744 4.03253 39.872 4.03253 40 4.03253C40 11.0245 40 18.0165 40 25.0085C39.872 25.0085 39.76 25.0085 39.632 25.0085C39.632 18.0165 39.632 11.0405 39.632 4.03253Z" fill="black"/>
<path d="M0.368037 25.0085C0.224038 25.0085 0.128038 25.0085 3.8147e-05 25.0085C3.8147e-05 18.0165 3.8147e-05 11.0405 3.8147e-05 4.03253C0.112038 4.03253 0.240038 4.03253 0.368037 4.03253C0.368037 11.0245 0.368037 18.0005 0.368037 25.0085Z" fill="black"/>
<path d="M20.24 4.016C20.352 4.016 20.464 4 20.608 4C20.608 10.032 20.608 16.032 20.608 22.048C20.544 22.064 20.496 22.08 20.432 22.08C20.368 22.08 20.32 22.064 20.24 22.064C20.24 16.048 20.24 10.048 20.24 4.016Z" fill="black"/>
<path d="M19.776 22.0638C19.696 22.0798 19.648 22.0958 19.6 22.0958C19.536 22.0958 19.488 22.0798 19.392 22.0798C19.392 16.0638 19.392 10.0638 19.392 4.04782C19.52 4.04782 19.632 4.04782 19.776 4.04782C19.776 10.0478 19.776 16.0318 19.776 22.0638Z" fill="black"/>
<path d="M1.21608 25.008C1.07208 25.008 0.976076 25.008 0.848076 25.008C0.848076 18.016 0.848076 11.04 0.848076 4.032C0.960076 4.016 1.07208 4.016 1.21608 4C1.21608 11.008 1.21608 18 1.21608 25.008Z" fill="black"/>
<path d="M37.888 4.03253C37.888 11.0405 37.888 18.0165 37.888 25.0085C37.76 25.0085 37.664 25.0245 37.568 25.0245C37.488 24.7525 37.44 4.60853 37.536 4.03253C37.632 4.03253 37.744 4.03253 37.888 4.03253Z" fill="black"/>
<path d="M35.8399 4.01593C35.9679 4.01593 36.0639 4.01593 36.1919 4.01593C36.1919 11.0239 36.1919 17.9999 36.1919 24.9919C36.1279 25.0079 36.0799 25.0239 36.0319 25.0239C35.9679 25.0239 35.9199 25.0079 35.8559 25.0079C35.7919 24.7519 35.7599 4.57593 35.8399 4.01593Z" fill="black"/>
<path d="M30.3039 22.0645C30.1759 22.0645 30.0639 22.0645 29.9199 22.0645C29.9199 16.0645 29.9199 10.0645 29.9199 4.03253C30.0479 4.03253 30.1599 4.03253 30.3039 4.03253C30.3039 10.0485 30.3039 16.0485 30.3039 22.0645Z" fill="black"/>
<path d="M13.0241 22.0485C12.9441 22.0645 12.8961 22.0805 12.8321 22.0805C12.7681 22.0805 12.7201 22.0645 12.6401 22.0645C12.6401 16.0485 12.6401 10.0645 12.6401 4.03253C12.7681 4.03253 12.8801 4.03253 13.0241 4.03253C13.0241 10.0485 13.0241 16.0485 13.0241 22.0485Z" fill="black"/>
<path d="M7.11997 22.0485C7.03997 22.0645 6.99197 22.0805 6.95997 22.0805C6.89597 22.0805 6.84797 22.0805 6.78397 22.0645C6.70397 21.7925 6.65597 4.91253 6.73597 4.03253C6.84797 4.03253 6.97597 4.03253 7.11997 4.03253C7.11997 10.0325 7.11997 16.0325 7.11997 22.0485Z" fill="black"/>
<path d="M23.568 22.064C23.44 22.064 23.328 22.064 23.184 22.064C23.184 16.048 23.184 10.048 23.184 4.048C23.232 4.032 23.28 4.016 23.328 4C23.392 4 23.472 4.016 23.568 4.016C23.568 10.032 23.568 16.032 23.568 22.064Z" fill="black"/>
<path d="M9.69601 4.032C9.76001 4.032 9.82401 4 9.87201 4C9.93601 4 9.98401 4.016 10.064 4.032C10.064 10.032 10.064 16.032 10.064 22.064C9.93601 22.064 9.82401 22.064 9.69601 22.064C9.69601 16.048 9.69601 10.048 9.69601 4.032Z" fill="black"/>
<path d="M15.6001 4.03253C15.7281 4.03253 15.8401 4.03253 15.9841 4.03253C15.9841 10.0485 15.9841 16.0325 15.9841 22.0645C15.8561 22.0645 15.7441 22.0645 15.6001 22.0645C15.6001 16.0485 15.6001 10.0485 15.6001 4.03253Z" fill="black"/>
<path d="M4.17596 25.0085C4.04796 25.0085 3.95196 25.0245 3.87196 25.0245C3.75996 24.9125 3.72796 4.52853 3.82396 4.03253C3.93596 4.03253 4.04796 4.03253 4.17596 4.03253C4.17596 11.0245 4.17596 18.0005 4.17596 25.0085Z" fill="black"/>
<path d="M18.56 4.01593C18.704 4.01593 18.8 4.01593 18.928 4.01593C18.928 10.0319 18.928 16.0159 18.928 22.0479C18.8 22.0479 18.704 22.0479 18.56 22.0479C18.56 16.0479 18.56 10.0479 18.56 4.01593Z" fill="black"/>
<path d="M14.0488 26.0552V22.8988H15.1523C15.3722 22.8988 15.5535 22.9368 15.6963 23.0128C15.8391 23.0878 15.9455 23.189 16.0154 23.3164C16.0852 23.4428 16.1202 23.5831 16.1202 23.7372C16.1202 23.8728 16.096 23.9848 16.0477 24.0732C16.0005 24.1615 15.9378 24.2314 15.8597 24.2828C15.7826 24.3342 15.6989 24.3722 15.6085 24.3968V24.4277C15.7051 24.4338 15.8022 24.4677 15.8998 24.5294C15.9974 24.591 16.0791 24.6794 16.1448 24.7945C16.2106 24.9095 16.2435 25.0503 16.2435 25.2168C16.2435 25.375 16.2075 25.5173 16.1356 25.6437C16.0637 25.7701 15.9501 25.8702 15.795 25.9442C15.6398 26.0182 15.4379 26.0552 15.1893 26.0552H14.0488ZM14.431 25.7161H15.1893C15.4389 25.7161 15.6162 25.6678 15.721 25.5712C15.8268 25.4736 15.8797 25.3555 15.8797 25.2168C15.8797 25.1099 15.8525 25.0113 15.798 24.9208C15.7436 24.8294 15.666 24.7564 15.5653 24.702C15.4646 24.6465 15.3454 24.6188 15.2078 24.6188H14.431V25.7161ZM14.431 24.2859H15.1399C15.255 24.2859 15.3588 24.2633 15.4513 24.218C15.5448 24.1728 15.6188 24.1091 15.6732 24.0269C15.7287 23.9447 15.7564 23.8482 15.7564 23.7372C15.7564 23.5985 15.7081 23.4808 15.6116 23.3842C15.515 23.2866 15.3619 23.2378 15.1523 23.2378H14.431V24.2859ZM17.7839 26.1045C17.5702 26.1045 17.3827 26.0536 17.2214 25.9519C17.0611 25.8502 16.9357 25.7079 16.8453 25.525C16.7559 25.3421 16.7112 25.1284 16.7112 24.8839C16.7112 24.6373 16.7559 24.422 16.8453 24.2381C16.9357 24.0542 17.0611 23.9113 17.2214 23.8096C17.3827 23.7079 17.5702 23.657 17.7839 23.657C17.9976 23.657 18.1846 23.7079 18.3449 23.8096C18.5062 23.9113 18.6316 24.0542 18.721 24.2381C18.8114 24.422 18.8566 24.6373 18.8566 24.8839C18.8566 25.1284 18.8114 25.3421 18.721 25.525C18.6316 25.7079 18.5062 25.8502 18.3449 25.9519C18.1846 26.0536 17.9976 26.1045 17.7839 26.1045ZM17.7839 25.7778C17.9463 25.7778 18.0798 25.7362 18.1846 25.6529C18.2894 25.5697 18.367 25.4603 18.4174 25.3246C18.4677 25.189 18.4929 25.0421 18.4929 24.8839C18.4929 24.7256 18.4677 24.5782 18.4174 24.4415C18.367 24.3049 18.2894 24.1944 18.1846 24.1102C18.0798 24.0259 17.9463 23.9838 17.7839 23.9838C17.6216 23.9838 17.488 24.0259 17.3832 24.1102C17.2784 24.1944 17.2008 24.3049 17.1505 24.4415C17.1001 24.5782 17.075 24.7256 17.075 24.8839C17.075 25.0421 17.1001 25.189 17.1505 25.3246C17.2008 25.4603 17.2784 25.5697 17.3832 25.6529C17.488 25.7362 17.6216 25.7778 17.7839 25.7778ZM19.7756 22.8988V26.0552H19.4118V22.8988H19.7756ZM21.4343 26.1045C21.2062 26.1045 21.0095 26.0542 20.844 25.9535C20.6796 25.8517 20.5527 25.71 20.4633 25.5281C20.375 25.3452 20.3308 25.1325 20.3308 24.89C20.3308 24.6475 20.375 24.4338 20.4633 24.2489C20.5527 24.0629 20.6771 23.918 20.8363 23.8142C20.9966 23.7094 21.1836 23.657 21.3973 23.657C21.5206 23.657 21.6424 23.6776 21.7626 23.7187C21.8828 23.7598 21.9922 23.8266 22.0909 23.919C22.1895 24.0105 22.2681 24.1317 22.3267 24.2828C22.3853 24.4338 22.4145 24.6198 22.4145 24.8407V24.9948H20.5897V24.6804H22.0446C22.0446 24.5468 22.0179 24.4277 21.9645 24.3228C21.9121 24.218 21.8371 24.1353 21.7395 24.0747C21.6429 24.0141 21.5289 23.9838 21.3973 23.9838C21.2525 23.9838 21.1271 24.0197 21.0213 24.0917C20.9165 24.1626 20.8358 24.255 20.7793 24.3691C20.7228 24.4831 20.6945 24.6054 20.6945 24.7359V24.9455C20.6945 25.1243 20.7254 25.2758 20.787 25.4002C20.8497 25.5235 20.9365 25.6175 21.0475 25.6822C21.1584 25.7459 21.2874 25.7778 21.4343 25.7778C21.5299 25.7778 21.6162 25.7644 21.6932 25.7377C21.7713 25.71 21.8386 25.6689 21.8952 25.6144C21.9517 25.5589 21.9953 25.4901 22.0262 25.4079L22.3776 25.5065C22.3406 25.6257 22.2784 25.7305 22.1911 25.8209C22.1037 25.9103 21.9958 25.9802 21.8674 26.0305C21.739 26.0799 21.5946 26.1045 21.4343 26.1045ZM23.9974 23.6879V23.9961H22.7706V23.6879H23.9974ZM23.1281 23.1207H23.4919V25.3771C23.4919 25.4798 23.5068 25.5569 23.5366 25.6082C23.5674 25.6586 23.6064 25.6925 23.6537 25.71C23.702 25.7264 23.7528 25.7346 23.8063 25.7346C23.8463 25.7346 23.8792 25.7326 23.9049 25.7285C23.9306 25.7233 23.9512 25.7192 23.9666 25.7161L24.0405 26.0429C24.0159 26.0521 23.9815 26.0614 23.9373 26.0706C23.8931 26.0809 23.8371 26.086 23.7693 26.086C23.6665 26.086 23.5658 26.0639 23.4672 26.0197C23.3696 25.9756 23.2884 25.9083 23.2237 25.8178C23.16 25.7274 23.1281 25.6134 23.1281 25.4757V23.1207ZM25.4808 26.1045C25.2671 26.1045 25.0796 26.0536 24.9183 25.9519C24.758 25.8502 24.6326 25.7079 24.5422 25.525C24.4528 25.3421 24.4081 25.1284 24.4081 24.8839C24.4081 24.6373 24.4528 24.422 24.5422 24.2381C24.6326 24.0542 24.758 23.9113 24.9183 23.8096C25.0796 23.7079 25.2671 23.657 25.4808 23.657C25.6945 23.657 25.8815 23.7079 26.0418 23.8096C26.2031 23.9113 26.3285 24.0542 26.4179 24.2381C26.5083 24.422 26.5535 24.6373 26.5535 24.8839C26.5535 25.1284 26.5083 25.3421 26.4179 25.525C26.3285 25.7079 26.2031 25.8502 26.0418 25.9519C25.8815 26.0536 25.6945 26.1045 25.4808 26.1045ZM25.4808 25.7778C25.6432 25.7778 25.7767 25.7362 25.8815 25.6529C25.9863 25.5697 26.0639 25.4603 26.1143 25.3246C26.1646 25.189 26.1898 25.0421 26.1898 24.8839C26.1898 24.7256 26.1646 24.5782 26.1143 24.4415C26.0639 24.3049 25.9863 24.1944 25.8815 24.1102C25.7767 24.0259 25.6432 23.9838 25.4808 23.9838C25.3185 23.9838 25.1849 24.0259 25.0801 24.1102C24.9753 24.1944 24.8977 24.3049 24.8474 24.4415C24.797 24.5782 24.7719 24.7256 24.7719 24.8839C24.7719 25.0421 24.797 25.189 24.8474 25.3246C24.8977 25.4603 24.9753 25.5697 25.0801 25.6529C25.1849 25.7362 25.3185 25.7778 25.4808 25.7778Z" fill="black"/>
</g>
<defs>
<clipPath id="clip0_2008_560">
<rect width="40" height="32" fill="white"/>
</clipPath>
</defs>
</svg>
