<svg width="40" height="32" viewBox="0 0 40 32" fill="none" xmlns="http://www.w3.org/2000/svg">
<path d="M5.95667 12.2362C6.38394 12.0917 6.84262 12.0163 7.32016 12.0163C9.40623 12.0163 11.1467 13.4991 11.5426 15.4658L14.4957 14.8626C13.8171 11.5199 10.864 9.00024 7.32016 9.00024C6.50961 9.00024 5.73047 9.13219 5.0016 9.37725L5.95667 12.2362Z" fill="#FFF100"/>
<path d="M2.46936 21.8121L4.46746 19.5501C3.57523 18.7584 3.01601 17.6086 3.01601 16.3205C3.01601 15.0387 3.57523 13.8825 4.46746 13.0971L2.46936 10.8414C0.95507 12.186 0 14.1402 0 16.3268C0 18.5071 0.95507 20.4674 2.46936 21.8121Z" fill="#00A3DF"/>
<path d="M11.5425 17.1879C11.1404 19.1546 9.40617 20.6312 7.3201 20.6312C6.84256 20.6312 6.38388 20.5558 5.95033 20.4113L4.99526 23.2702C5.72413 23.5152 6.50954 23.6472 7.3201 23.6472C10.8639 23.6472 13.8171 21.1339 14.4957 17.7911L11.5425 17.1879Z" fill="#EE4023"/>
<path d="M24.3355 19.2108C23.8455 19.6884 23.1857 19.9773 22.4568 19.9648C21.9541 19.9585 21.4893 19.8077 21.0996 19.5563L20.1194 21.1147C20.7916 21.5356 21.577 21.7869 22.4317 21.7995C23.6695 21.8183 24.8004 21.3282 25.6236 20.5303L24.3355 19.2108ZM22.5636 12.8583C20.1005 12.8206 18.0648 14.7936 18.027 17.2566C18.0144 18.1803 18.2783 19.0474 18.7496 19.7637L26.8425 16.3015C26.3902 14.36 24.6561 12.896 22.5637 12.8583M19.8807 17.6084C19.8681 17.5079 19.8618 17.4011 19.8618 17.2943C19.8869 15.8428 21.0808 14.6804 22.5322 14.7055C23.3239 14.7181 24.0276 15.0762 24.4989 15.6417L19.8807 17.6084ZM29.3874 10.8475V19.4746L30.8829 20.0966L30.1728 21.7994L28.6899 21.1837C28.357 21.0391 28.1307 20.8192 27.961 20.5679C27.7977 20.3166 27.672 19.9646 27.672 19.4997V10.8475H29.3874ZM34.7848 14.8375C35.0488 14.7495 35.3252 14.7055 35.6206 14.7055C36.896 14.7055 37.9517 15.6103 38.1968 16.8105L40 16.4397C39.5853 14.3976 37.7821 12.8645 35.6206 12.8645C35.1242 12.8645 34.6467 12.9462 34.2068 13.0907L34.7848 14.8375ZM32.6547 20.6747L33.8737 19.2987C33.3271 18.8148 32.9877 18.1111 32.9877 17.3257C32.9877 16.5403 33.3333 15.8365 33.8737 15.359L32.6547 13.9829C31.7311 14.7998 31.1467 15.9999 31.1467 17.332C31.1467 18.664 31.7311 19.8579 32.6547 20.6747ZM38.1968 17.8597C37.9517 19.0599 36.8898 19.9646 35.6206 19.9646C35.3315 19.9646 35.0488 19.9144 34.7848 19.8265L34.2005 21.5732C34.6467 21.724 35.1241 21.8057 35.6206 21.8057C37.7821 21.8057 39.5854 20.2726 40 18.2305L38.1968 17.8597Z" fill="black"/>
</svg>
