<svg width="40" height="32" viewBox="0 0 40 32" fill="none" xmlns="http://www.w3.org/2000/svg">
<path d="M10.9808 7.00006H6.83516C5.00343 7.08667 3.50611 7.82445 3.07378 9.34587C2.84834 10.1393 2.72428 11.0107 2.548 11.8333C1.65184 16.0155 0.857212 20.3129 0 24.4116H32.275C34.7702 24.4116 36.4834 23.8843 36.9464 21.904C37.1615 20.9841 37.3675 19.942 37.5733 18.9313C38.3755 14.9905 39.1784 11.0499 40 7.00006H10.9808Z" fill="#B82126"/>
<path d="M27.6328 17.4029C27.1852 17.8411 25.9287 17.9656 26.0573 16.9182C26.164 16.0482 27.1112 15.8633 28.1378 15.989C28.0614 16.4648 27.9739 17.0691 27.6328 17.4029ZM26.2189 14.0095C26.1761 14.2495 26.1105 14.4666 26.0573 14.6962C26.5698 14.5677 28.1658 14.1737 28.3196 14.8578C28.3707 15.0851 28.2826 15.3266 28.2186 15.5042C26.7753 15.3675 25.599 15.6073 25.2897 16.6353C25.0825 17.324 25.3129 18.0016 25.7543 18.1908C26.6044 18.5549 27.6385 18.1378 27.9964 17.5646C27.9592 17.763 27.924 17.9634 27.9358 18.2109H28.6832C28.6911 17.4952 28.7952 16.9158 28.9054 16.2717C28.9992 15.7233 29.1758 15.1803 29.1477 14.6962C29.0836 13.5876 27.2469 13.9797 26.2189 14.0095ZM33.7128 17.7463C33.1281 17.7589 32.8374 17.397 32.824 16.797C32.8007 15.7462 33.2617 14.5787 34.1976 14.474C34.6334 14.4253 34.9489 14.5266 35.2682 14.6357C34.9751 15.816 35.0809 17.717 33.7128 17.7463ZM35.652 12.1915C35.5775 12.8442 35.478 13.4719 35.349 14.07C33.2185 13.3957 31.9118 14.9632 31.9352 16.8979C31.9399 17.2721 32.0043 17.6432 32.2383 17.9079C32.6416 18.364 33.7964 18.4731 34.3794 18.0898C34.4923 18.0156 34.6076 17.8805 34.6825 17.7868C34.7386 17.7162 34.8279 17.5316 34.844 17.5847C34.8134 17.7898 34.7676 17.9797 34.7632 18.2109H35.551C35.7028 16.0331 36.1723 14.1728 36.5206 12.1915H35.652ZM13.4124 17.4232C12.9477 17.9153 11.8053 17.9078 11.7157 17.0797C11.6767 16.7194 11.8109 16.3416 11.8773 15.9688C11.9444 15.5915 11.9927 15.2295 12.059 14.8982C12.5167 14.3393 13.8618 14.2718 13.9982 15.2012C14.1167 16.0081 13.7973 17.0156 13.4124 17.4232ZM14.0992 14.0095C13.3641 13.7333 12.4681 14.0629 12.0797 14.3765C12.081 14.3903 12.0705 14.3922 12.059 14.3932C12.0657 14.3877 12.0728 14.3821 12.0797 14.3765C12.0796 14.3753 12.0796 14.3743 12.0792 14.3731C12.0858 14.2382 12.1333 14.1443 12.1399 14.0095H11.3925C11.081 16.0815 10.7117 18.0957 10.3219 20.0895H11.1905C11.3162 19.3129 11.3992 18.4938 11.5743 17.7666C11.7727 18.5314 13.0679 18.3852 13.6144 18.0898C14.7421 17.48 15.6119 14.5777 14.0992 14.0095ZM18.2199 15.4638H16.1798C16.2443 14.9948 16.6663 14.4793 17.3311 14.4539C17.9568 14.4299 18.4048 14.6836 18.2199 15.4638ZM17.3917 13.9287C16.7641 13.977 16.2336 14.1576 15.8566 14.5548C15.3941 15.042 15.0196 16.1191 15.1294 17.1C15.2859 18.4993 17.0283 18.4491 18.4219 18.1099C18.4456 17.8644 18.505 17.6544 18.5431 17.4232C17.969 17.638 16.9722 17.9379 16.3818 17.5646C15.936 17.2827 15.9334 16.5689 16.0788 15.9486C17.0154 15.9188 17.9889 15.9245 18.9269 15.9486C18.9864 15.5089 19.1567 15.0295 19.0076 14.5953C18.8111 14.0219 18.1076 13.8735 17.3917 13.9287ZM9.75634 14.0095C9.73281 14.0128 9.73438 14.0414 9.73611 14.07C9.54473 15.5013 9.28575 16.8651 9.00897 18.2109H9.87752C10.0862 16.77 10.3253 15.3595 10.6249 14.0095H9.75634ZM32.4201 14.0296C31.6524 13.6459 31.0134 14.2899 30.7638 14.676C30.8349 14.4779 30.8389 14.2126 30.9051 14.0095H30.1375C29.9306 15.4521 29.681 16.8522 29.3901 18.2109H30.2789C30.2846 17.6541 30.3939 17.2422 30.4809 16.696C30.6667 15.5299 30.9393 14.2511 32.2989 14.6357C32.344 14.4384 32.3628 14.2147 32.4201 14.0296ZM22.6637 17.2211C22.5837 17.0143 22.5629 16.6728 22.5829 16.4131C22.6279 15.8295 22.8405 15.1189 23.1687 14.7972C23.6217 14.3532 24.5159 14.4267 25.229 14.676C25.2512 14.4356 25.2995 14.2212 25.3301 13.9893C24.1603 13.7982 23.0503 13.9171 22.4618 14.5346C21.8857 15.1392 21.508 16.5287 21.7749 17.4029C22.0875 18.426 23.4886 18.4816 24.6232 18.0898C24.6733 17.8841 24.6999 17.6549 24.7443 17.4433C24.1244 17.7655 22.9392 17.9328 22.6637 17.2211ZM22.179 14.0095C21.4088 13.6984 20.8034 14.224 20.5227 14.7164C20.5863 14.4974 20.6126 14.2408 20.664 14.0095H19.8964C19.7088 15.4648 19.4322 16.831 19.1693 18.2109H20.0379C20.1596 17.3918 20.2122 16.2877 20.4822 15.5042C20.6981 14.8781 21.2629 14.3447 22.078 14.6357C22.0894 14.4047 22.1556 14.2284 22.179 14.0095ZM8.18081 12.3127C8.05674 13.1178 7.91697 13.9072 7.77681 14.6962C6.87697 14.7057 5.95822 14.7407 5.0903 14.676C5.25422 13.9041 5.37179 13.0858 5.53462 12.3127H4.56513C4.21799 14.2819 3.9023 16.2823 3.51477 18.2109H4.5045C4.65979 17.2215 4.80497 16.2221 5.00944 15.282C5.85336 15.2612 6.86481 15.225 7.67579 15.3022C7.50858 16.2797 7.30654 17.2222 7.15062 18.2109H8.14042C8.45838 16.2128 8.79352 14.2317 9.19077 12.3127H8.18081ZM10.6451 13.2015C10.8183 13.0822 11.0413 12.5389 10.7865 12.3127C10.7058 12.2411 10.5708 12.2203 10.3825 12.2521C10.2079 12.2816 10.1074 12.3409 10.0392 12.4339C9.92936 12.5833 9.82881 13.034 9.9987 13.2015C10.1642 13.3645 10.5349 13.2773 10.6451 13.2015Z" fill="white"/>
</svg>
