<svg width="40" height="32" viewBox="0 0 40 32" fill="none" xmlns="http://www.w3.org/2000/svg">
<g clip-path="url(#clip0_2008_535)">
<path d="M25.3957 6.64552H14.5712V26.0928H25.3957V6.64552Z" fill="#FF5A00"/>
<path d="M15.292 16.3696C15.292 12.4185 17.1494 8.91173 19.9997 6.64595C17.902 4.99668 15.2559 3.99989 12.3697 3.99989C5.53228 3.99989 -3.05176e-05 9.53223 -3.05176e-05 16.3696C-3.05176e-05 23.207 5.53228 28.7394 12.3697 28.7394C15.2559 28.7394 17.902 27.7425 19.9997 26.0933C17.1455 23.8595 15.292 20.3207 15.292 16.3696Z" fill="#EB001B"/>
<path d="M40 16.3695C40 23.2069 34.4676 28.7393 27.6303 28.7393C24.744 28.7393 22.0979 27.7424 20.0002 26.0932C22.8865 23.8234 24.7079 20.3206 24.7079 16.3695C24.7079 12.4184 22.8505 8.91162 20.0002 6.64584C22.0939 4.99657 24.74 3.99979 27.6262 3.99979C34.4676 3.99979 40 9.56817 40 16.3695Z" fill="#F79E1B"/>
</g>
<defs>
<clipPath id="clip0_2008_535">
<rect width="40" height="32" fill="white"/>
</clipPath>
</defs>
</svg>
