<svg width="38" height="30" viewBox="0 0 38 30" fill="none" xmlns="http://www.w3.org/2000/svg">
<path d="M37.1283 14.8647C37.1283 6.07357 29.7906 -0.00265178 21.7507 1.05025e-06H14.832C6.69637 -0.00291707 0 6.07543 0 14.8647C0 22.9055 6.69655 29.5119 14.832 29.473H21.7507C29.7899 29.5116 37.1283 22.9034 37.1283 14.8647Z" fill="#0079BE"/>
<path d="M14.8754 1.24529C7.44133 1.24758 1.41754 7.28561 1.41489 14.7376C1.41674 22.1883 7.4408 28.2255 14.8754 28.2281C22.3111 28.2259 28.3367 22.1884 28.3376 14.7376C28.3366 7.28543 22.3113 1.24794 14.8754 1.24529Z" fill="white"/>
<path d="M6.36767 14.7007C6.37474 11.0592 8.64442 7.954 11.8449 6.72008V22.6795C8.64442 21.4463 6.37465 18.3426 6.36767 14.7007ZM17.9517 22.6835V6.72052C21.1535 7.95152 23.4267 11.0585 23.4325 14.7017C23.4266 18.3459 21.1535 21.4506 17.9517 22.6839V22.6835Z" fill="#0079BE"/>
</svg>
