<svg width="40" height="32" viewBox="0 0 40 32" fill="none" xmlns="http://www.w3.org/2000/svg">
<g clip-path="url(#clip0_2008_533)">
<path d="M26.0535 10.0001C23.2133 10.0001 20.6752 11.4726 20.6752 14.1932C20.6752 17.3132 25.1767 17.5287 25.1767 19.0961C25.1767 19.7561 24.4205 20.3468 23.1292 20.3468C21.2964 20.3468 19.9266 19.5214 19.9266 19.5214L19.3404 22.2668C19.3404 22.2668 20.9185 22.964 23.0135 22.964C26.1187 22.964 28.5621 21.4192 28.5621 18.6521C28.5621 15.3553 24.042 15.1462 24.042 13.6914C24.042 13.1744 24.6626 12.6079 25.9504 12.6079C27.4033 12.6079 28.5886 13.2083 28.5886 13.2083L29.1623 10.5567C29.1623 10.5567 27.8725 10.0001 26.0535 10.0001ZM0.0688349 10.2002L6.10352e-05 10.6005C6.10352e-05 10.6005 1.19492 10.8192 2.27108 11.2556C3.65675 11.7559 3.75541 12.0472 3.98883 12.9519L6.53178 22.7577H9.94065L15.1923 10.2002H11.7913L8.41678 18.7381L7.03978 11.501C6.91346 10.6728 6.27381 10.2002 5.49087 10.2002H0.0688349ZM16.5599 10.2002L13.8919 22.7577H17.1351L19.7937 10.2002H16.5599ZM34.6483 10.2002C33.8663 10.2002 33.4519 10.6191 33.1479 11.3509L28.3964 22.7577H31.7975L32.4555 20.8565H36.599L36.9991 22.7577H40.0001L37.382 10.2002H34.6483ZM35.0907 13.5929L36.0988 18.305H33.398L35.0907 13.5929Z" fill="#1434CB"/>
</g>
<defs>
<clipPath id="clip0_2008_533">
<rect width="40" height="32" fill="white"/>
</clipPath>
</defs>
</svg>
